<svg width="131" height="34" viewBox="0 0 131 34" fill="none" xmlns="http://www.w3.org/2000/svg">
<path d="M44.1477 29.8677C43.2268 29.554 42.9108 29.4457 42.9108 29.1455C42.9108 28.8634 43.1839 28.6806 43.615 28.6806C44.1296 28.6806 44.4456 28.9966 44.6103 29.5112L45.5966 28.7573C45.2897 28.0261 44.7841 27.4551 43.615 27.4551C42.6016 27.4551 41.5657 28.0441 41.5657 29.1726C41.5657 30.2108 42.1548 30.5742 43.5157 31.0301C44.1883 31.2535 44.4614 31.4792 44.4614 31.7591C44.4614 31.9915 44.2379 32.1811 43.8475 32.1811C43.1591 32.1811 42.6784 31.6846 42.4369 31.2264L41.4258 31.9983C41.832 32.8943 42.6784 33.4247 43.7233 33.4247C44.9692 33.4247 45.8381 32.6957 45.8381 31.6417C45.8404 30.7051 45.4161 30.2988 44.1477 29.8677Z" fill="#FF7D00"/>
<path d="M39.8533 27.5366H38.542V33.3437H39.8533V27.5366Z" fill="#FF7D00"/>
<path d="M21.1118 27.5366H19.8027V33.3437H23.7434V32.0979H21.1118V27.5366Z" fill="#FF7D00"/>
<path d="M27.5843 27.4531C25.9751 27.4531 24.8218 28.541 24.8218 30.4413C24.8218 32.3484 25.9751 33.4363 27.5843 33.4363C29.1935 33.4363 30.3468 32.3484 30.3468 30.4413C30.3445 28.541 29.1935 27.4531 27.5843 27.4531ZM27.5843 32.1904C26.7289 32.1904 26.1985 31.5766 26.1985 30.4481C26.1985 29.3128 26.7289 28.6967 27.5843 28.6967C28.4374 28.6967 28.97 29.3106 28.97 30.4481C28.9678 31.5766 28.4374 32.1904 27.5843 32.1904Z" fill="#FF7D00"/>
<path d="M48.6863 27.5366H47.375V33.3437H48.6863V27.5366Z" fill="#FF7D00"/>
<path d="M35.4061 30.7392C35.4061 31.8248 34.9999 32.1814 34.3205 32.1814C33.5983 32.1814 33.2327 31.8248 33.2327 30.746V27.5366H31.9214V30.9627C31.9214 32.6892 32.8919 33.4272 34.3183 33.4272C35.7446 33.4272 36.7151 32.6892 36.7151 30.9627V27.5366H35.4038V30.7392H35.4061Z" fill="#FF7D00"/>
<path d="M95.6225 29.7259H93.5642V27.5366H92.2529V33.3437H93.5642V30.9717H95.6225V33.3437H96.9316V27.5366H95.6225V29.7259Z" fill="#FF7D00"/>
<path d="M88.4856 32.1814C87.7138 32.1814 87.1834 31.5766 87.1834 30.4481C87.1834 29.3128 87.7138 28.6967 88.4856 28.6967C89.0657 28.6967 89.3907 29.0714 89.4561 29.8003L90.6997 29.5273C90.5665 28.1911 89.903 27.4531 88.4856 27.4531C86.9848 27.4531 85.8066 28.541 85.8066 30.4413C85.8066 32.3484 86.9848 33.4273 88.4856 33.4273C89.8308 33.4273 90.5756 32.7299 90.8825 31.4615L89.6209 31.1884C89.4335 31.809 89.1266 32.1814 88.4856 32.1814Z" fill="#FF7D00"/>
<path d="M76.5521 27.5366H74.9677L73.2253 29.701V27.5366H71.9141V33.3437H73.2253V31.5675L73.7151 30.9785L75.0083 33.3437H76.5927L74.6608 29.8252L76.5521 27.5366Z" fill="#FF7D00"/>
<path d="M64.8387 27.5366L62.8887 33.3437H64.2157L64.622 32.0663H66.5291L66.9354 33.3437H68.2625L66.3124 27.5366H64.8387ZM64.9967 30.8634L65.5767 29.0307L66.1567 30.8634H64.9967Z" fill="#FF7D00"/>
<path d="M79.1887 27.5366H77.8774V33.3437H79.1887V27.5366Z" fill="#FF7D00"/>
<path d="M60.2484 31.3102L58.233 27.5366H56.7163V33.3437H58.0253V29.8252L60.0408 33.3437H61.5597V27.5366H60.2484V31.3102Z" fill="#FF7D00"/>
<path d="M51.9646 27.5366L50.0146 33.3437H51.3417L51.748 32.0663H53.6551L54.0613 33.3437H55.3884L53.4384 27.5366H51.9646ZM52.1204 30.8634L52.7004 29.0307L53.2804 30.8634H52.1204Z" fill="#FF7D00"/>
<path d="M100.068 31.0033H102.422V29.7597H100.068V28.7802H102.704V27.5366H98.7568V33.3437H102.754V32.0979H100.068V31.0033Z" fill="#FF7D00"/>
<path d="M107.832 31.3102L105.816 27.5366H104.297V33.3437H105.609V29.8252L107.624 33.3437H109.141V27.5366H107.832V31.3102Z" fill="#FF7D00"/>
<path d="M80.5171 28.7802H82.0924V33.3437H83.4037V28.7802H84.9791V27.5366H80.5171V28.7802Z" fill="#FF7D00"/>
<path d="M129.265 17.9131C128.591 17.9131 128.026 18.439 128.026 19.1386C128.026 19.845 128.591 20.3732 129.265 20.3732C129.936 20.3732 130.5 19.8473 130.5 19.1386C130.5 18.4367 129.938 17.9131 129.265 17.9131ZM129.265 20.1903C128.688 20.1903 128.25 19.739 128.25 19.1386C128.25 18.5473 128.688 18.0959 129.265 18.0959C129.834 18.0959 130.274 18.5473 130.274 19.1386C130.274 19.739 129.834 20.1903 129.265 20.1903Z" fill="#FF7D00"/>
<path d="M129.863 18.8541C129.863 18.5359 129.657 18.4253 129.294 18.4253H128.75V19.8742H129.032V19.2536H129.215L129.572 19.8742H129.869L129.484 19.24C129.693 19.222 129.863 19.1204 129.863 18.8541ZM129.03 19.0302V18.6465H129.274C129.409 18.6465 129.572 18.669 129.572 18.8293C129.572 19.0053 129.45 19.0302 129.287 19.0302H129.03Z" fill="#FF7D00"/>
<path d="M82.9199 20.2262H89.201V14.9156L96.5541 0.979004H89.8826L86.1 9.13108L82.4776 0.979004H75.9302L82.9199 14.9066V20.2262Z" fill="#FF7D00"/>
<path d="M8.22551 0.0290158C5.97308 -0.0770605 2.13403 0.132835 0.5 0.25471L0.630903 5.12745L2.19722 5.0304V20.2083H8.23228V16.4144C17.0502 15.9946 19.1107 11.2912 19.1107 7.97345C19.1107 3.26547 15.2739 0.360786 8.22551 0.0290158ZM8.23228 11.6816V5.05071C12.0759 5.23127 13.0012 6.87658 13.0012 8.2172C13.0012 10.1198 11.7238 11.6094 8.23228 11.6816Z" fill="#FF7D00"/>
<path d="M103.998 0.270508C98.1708 0.270508 94.1377 4.49776 94.1377 10.3207C94.1377 16.1436 98.0264 20.4769 104.56 20.4769C107.282 20.4769 109.65 19.8833 111.634 18.5382L109.462 14.074C108.04 14.988 106.551 15.4846 104.815 15.4846C102.409 15.4846 100.902 14.3358 100.315 12.3429H113.146C113.256 11.7651 113.356 10.6389 113.347 9.63682C113.31 5.49307 111.128 0.270508 103.998 0.270508ZM100.254 8.26234C100.723 6.32137 101.96 4.99655 104.016 4.99655C105.975 4.99655 107.406 6.16113 107.555 8.26234H100.254Z" fill="#FF7D00"/>
<path d="M47.388 0.227762C45.1582 0.121686 41.3575 0.331581 39.7393 0.451199L39.8702 5.27429L41.4207 5.17724V20.204H47.3948V16.4507C56.1269 16.0331 58.1672 11.3771 58.1672 8.09321C58.1649 3.43262 54.3665 0.557276 47.388 0.227762ZM47.3948 11.7653V5.19981C51.2023 5.37811 52.1163 7.00762 52.1163 8.3347C52.1163 10.2215 50.8524 11.6953 47.3948 11.7653Z" fill="#FF7D00"/>
<path d="M123.887 8.77262C122.811 8.33928 121.515 7.85855 120.671 7.47487C119.845 7.10022 119.554 6.72557 119.554 6.15682C119.554 5.403 120.332 4.99224 121.325 4.99224C122.844 4.99224 124.032 5.69189 125.097 6.8339L128.442 3.35595C127.006 1.42401 124.544 0.20752 121.4 0.20752C117.141 0.20752 113.817 2.26134 113.817 6.31255C113.817 9.51289 115.36 11.0521 118.353 12.3454C119.204 12.7132 120.339 13.0405 121.19 13.4016C121.933 13.7176 122.4 14.0516 122.4 14.661C122.4 15.2275 121.903 15.6856 120.466 15.6856C119.139 15.6856 117.231 15.153 115.841 14.2502L113.808 18.4165C115.744 19.8181 118.082 20.3914 120.472 20.3914C124.185 20.3914 128.166 18.7844 128.166 14.4624C128.171 11.2079 126.088 9.66185 123.887 8.77262Z" fill="#FF7D00"/>
<path d="M29.7889 0.392578C24.2481 0.392578 19.6372 4.50698 19.6372 10.3457C19.6372 16.1821 24.2481 20.2966 29.7889 20.2966C35.332 20.2966 39.9429 16.1821 39.9429 10.3457C39.9429 4.50698 35.332 0.392578 29.7889 0.392578ZM29.8341 14.9566C27.1415 14.9566 25.433 12.8848 25.433 10.3051C25.433 7.72538 27.1415 5.65351 29.8341 5.65351C32.5266 5.65351 34.2351 7.72538 34.2351 10.3051C34.2351 12.8848 32.5266 14.9566 29.8341 14.9566Z" fill="#FF7D00"/>
<path d="M68.5095 0.270508C62.6821 0.270508 58.6489 4.49776 58.6489 10.3207C58.6489 16.1436 62.4496 20.4769 69.1257 20.4769C72.1116 20.4769 74.7251 19.7524 76.8196 18.1274L74.4656 13.8167C72.9286 14.8842 71.272 15.4846 69.3829 15.4846C66.8687 15.4846 65.3859 14.3358 64.8194 12.3429H77.6637C77.7743 11.7651 77.8713 10.6389 77.8623 9.63682C77.8217 5.49307 75.6392 0.270508 68.5095 0.270508ZM64.7652 8.26234C65.2347 6.32137 66.4715 4.99655 68.5276 4.99655C70.4866 4.99655 71.904 6.14082 72.0665 8.26234H64.7652Z" fill="#FF7D00"/>
</svg>
